<svg width="17" height="16" viewBox="0 0 17 16" fill="none" xmlns="http://www.w3.org/2000/svg">
<path d="M6.92678 11.5L3.08849 7.71375C3.0282 7.64423 2.9967 7.55482 3.00027 7.46337C3.00385 7.37192 3.04225 7.28517 3.10779 7.22046C3.17333 7.15574 3.26118 7.11783 3.3538 7.1143C3.44642 7.11077 3.53698 7.14187 3.60738 7.2014L6.91942 10.4717L13.3926 4.08737C13.463 4.02784 13.5536 3.99674 13.6462 4.00027C13.7388 4.0038 13.8267 4.04171 13.8922 4.10643C13.9578 4.17114 13.9961 4.25789 13.9997 4.34934C14.0033 4.44079 13.9718 4.5302 13.9115 4.59972L6.92678 11.5Z" fill="#2E2E2B" stroke="#2E2E2B" stroke-width="2"/>
</svg>
